<svg width="277" height="277" viewBox="0 0 277 277" fill="none" xmlns="http://www.w3.org/2000/svg">
<path d="M0 25.1818C0 11.2743 11.2743 0 25.1818 0H251.818C265.726 0 277 11.2743 277 25.1818V251.818C277 265.726 265.726 277 251.818 277H25.1818C11.2743 277 0 265.726 0 251.818V25.1818Z" fill="#FDFDFD"/>
<path d="M65.4727 80.5818C65.4727 52.7667 88.0213 30.2182 115.836 30.2182H130.945V191.382C130.945 219.197 108.397 241.745 80.5818 241.745H65.4727V80.5818Z" fill="url(#paint0_linear_73_31)"/>
<path d="M211.527 209.009C211.527 227.089 196.871 241.745 178.791 241.745C160.711 241.745 146.055 227.089 146.055 209.009C146.055 190.929 160.711 176.273 178.791 176.273C196.871 176.273 211.527 190.929 211.527 209.009Z" fill="url(#paint1_radial_73_31)"/>
<defs>
<linearGradient id="paint0_linear_73_31" x1="138.5" y1="0" x2="138.5" y2="277" gradientUnits="userSpaceOnUse">
<stop stop-color="#552AFF"/>
<stop offset="1" stop-color="#00001C"/>
</linearGradient>
<radialGradient id="paint1_radial_73_31" cx="0" cy="0" r="1" gradientUnits="userSpaceOnUse" gradientTransform="translate(178.791 209.009) rotate(90) scale(32.7364)">
<stop stop-color="#9382FF"/>
<stop offset="1" stop-color="#552AFF"/>
</radialGradient>
</defs>
</svg>
