<svg width="98" height="98" viewBox="0 0 98 98" fill="none" xmlns="http://www.w3.org/2000/svg">
<g clip-path="url(#clip0_3_14)">
<path d="M48.83 97.66C75.7981 97.66 97.66 75.7981 97.66 48.83C97.66 21.8619 75.7981 0 48.83 0C21.8619 0 0 21.8619 0 48.83C0 75.7981 21.8619 97.66 48.83 97.66Z" fill="url(#paint0_radial_3_14)"/>
<path d="M32.47 13.86H33.94C42.22 13.86 48.94 20.58 48.94 28.86V78.37H32.47V13.86Z" fill="url(#paint1_linear_3_14)"/>
<path d="M32.47 78.38V75.35C32.47 67.94 38.49 61.92 45.9 61.92H74.19V64.04C74.19 71.96 67.76 78.39 59.84 78.39H32.46L32.47 78.38Z" fill="url(#paint2_linear_3_14)"/>
</g>
<defs>
<radialGradient id="paint0_radial_3_14" cx="0" cy="0" r="1" gradientUnits="userSpaceOnUse" gradientTransform="translate(48.7809 49.0608) rotate(113.63) scale(59.9334 68.241)">
<stop offset="0.29" stop-color="#9D4EDD" stop-opacity="0.8"/>
<stop offset="0.36" stop-color="#A052DE" stop-opacity="0.81"/>
<stop offset="0.46" stop-color="#A961E1" stop-opacity="0.83"/>
<stop offset="0.56" stop-color="#B878E6" stop-opacity="0.86"/>
<stop offset="0.67" stop-color="#CD99ED" stop-opacity="0.9"/>
<stop offset="0.78" stop-color="#E8C3F7" stop-opacity="0.95"/>
<stop offset="0.87" stop-color="#FFE6FF"/>
</radialGradient>
<linearGradient id="paint1_linear_3_14" x1="35.37" y1="15.91" x2="44.85" y2="81.93" gradientUnits="userSpaceOnUse">
<stop offset="0.04" stop-color="#7B4FBF"/>
<stop offset="0.15" stop-color="#6F46AE"/>
<stop offset="0.38" stop-color="#4F2F83"/>
<stop offset="0.69" stop-color="#1D0A3D"/>
<stop offset="0.77" stop-color="#10002B"/>
</linearGradient>
<linearGradient id="paint2_linear_3_14" x1="33.31" y1="74.68" x2="73.97" y2="65.28" gradientUnits="userSpaceOnUse">
<stop offset="0.01" stop-color="#10002B"/>
<stop offset="0.18" stop-color="#200C41"/>
<stop offset="0.53" stop-color="#4A2B7B"/>
<stop offset="0.9" stop-color="#7B4FBF"/>
</linearGradient>
<clipPath id="clip0_3_14">
<rect width="97.65" height="97.65" fill="white"/>
</clipPath>
</defs>
</svg>
