<svg width="177" height="27" viewBox="0 0 177 27" fill="none" xmlns="http://www.w3.org/2000/svg">
<path d="M0.00378418 1H0.571775C3.77108 1 6.36761 3.59654 6.36761 6.79584V25.926H0.00378418V1Z" fill="url(#paint0_linear_3_66)"/>
<path d="M0.00386324 25.9299L0.00386324 24.7591C0.00386324 21.8959 2.32993 19.5699 5.19307 19.5699H16.124V20.389C16.124 23.4492 13.6395 25.9337 10.5793 25.9337H0L0.00386324 25.9299Z" fill="url(#paint1_linear_3_66)"/>
<path d="M29.9267 26.288C26.6147 26.288 24.0107 25.34 22.1147 23.444C20.2187 21.548 19.2707 18.776 19.2707 15.128V0.799998H22.8707V14.984C22.8707 17.792 23.4827 19.844 24.7067 21.14C25.9547 22.436 27.7067 23.084 29.9627 23.084C32.2427 23.084 33.9947 22.436 35.2187 21.14C36.4667 19.844 37.0907 17.792 37.0907 14.984V0.799998H40.5827V15.128C40.5827 18.776 39.6347 21.548 37.7387 23.444C35.8667 25.34 33.2627 26.288 29.9267 26.288ZM45.8032 26V0.799998H48.7552L60.0592 19.844H58.4752L69.6352 0.799998H72.5872L72.6232 26H69.1672L69.1312 6.236H69.9592L60.0232 22.94H58.3672L48.3592 6.236H49.2592V26H45.8032ZM78.026 26V0.799998H81.626V26H78.026ZM87.0106 26V0.799998H89.9626L106.631 21.5H105.083V0.799998H108.683V26H105.731L89.0626 5.3H90.6106V26H87.0106ZM110.249 26L121.661 0.799998H125.225L136.673 26H132.893L122.705 2.816H124.145L113.957 26H110.249ZM115.109 19.7L116.081 16.82H130.265L131.309 19.7H115.109ZM142.011 26V3.932H133.371V0.799998H154.215V3.932H145.575V26H142.011ZM159.252 11.672H172.212V14.732H159.252V11.672ZM159.576 22.868H174.264V26H155.976V0.799998H173.76V3.932H159.576V22.868Z" fill="#5A189A"/>
<defs>
<linearGradient id="paint0_linear_3_66" x1="1.12431" y1="1.7921" x2="4.78728" y2="27.3015" gradientUnits="userSpaceOnUse">
<stop offset="0.04" stop-color="#7B4FBF"/>
<stop offset="0.15" stop-color="#6F46AE"/>
<stop offset="0.38" stop-color="#4F2F83"/>
<stop offset="0.69" stop-color="#1D0A3D"/>
<stop offset="0.77" stop-color="#10002B"/>
</linearGradient>
<linearGradient id="paint1_linear_3_66" x1="0.328431" y1="24.5002" x2="16.039" y2="20.8682" gradientUnits="userSpaceOnUse">
<stop offset="0.01" stop-color="#10002B"/>
<stop offset="0.18" stop-color="#200C41"/>
<stop offset="0.53" stop-color="#4A2B7B"/>
<stop offset="0.9" stop-color="#7B4FBF"/>
</linearGradient>
</defs>
</svg>
