<svg width="230" height="39" viewBox="0 0 230 39" fill="none" xmlns="http://www.w3.org/2000/svg">
<path d="M0 3.54545C0 1.58735 1.58735 0 3.54545 0H35.4545C37.4126 0 39 1.58735 39 3.54545V35.4545C39 37.4126 37.4126 39 35.4545 39H3.54545C1.58735 39 0 37.4126 0 35.4545V3.54545Z" fill="#FDFDFD"/>
<path d="M9.21818 11.3455C9.21818 7.42925 12.3929 4.25455 16.3091 4.25455H18.4364V26.9455C18.4364 30.8617 15.2617 34.0364 11.3455 34.0364H9.21818V11.3455Z" fill="url(#paint0_linear_106_84)"/>
<path d="M29.7818 29.4273C29.7818 31.9728 27.7183 34.0364 25.1727 34.0364C22.6272 34.0364 20.5636 31.9728 20.5636 29.4273C20.5636 26.8817 22.6272 24.8182 25.1727 24.8182C27.7183 24.8182 29.7818 26.8817 29.7818 29.4273Z" fill="url(#paint1_radial_106_84)"/>
<path d="M51.772 32V6.62H56.38V28.076H68.548V32H51.772Z" fill="white"/>
<path d="M81.5153 32.36C78.0353 32.36 75.3713 31.46 73.5233 29.66C71.6993 27.836 70.7873 25.148 70.7873 21.596V6.62H75.3953V21.56C75.3953 23.84 75.9113 25.556 76.9433 26.708C77.9993 27.836 79.5233 28.4 81.5153 28.4C85.5713 28.4 87.5993 26.12 87.5993 21.56V6.62H92.1713V21.596C92.1713 25.148 91.2713 27.836 89.4713 29.66C87.6713 31.46 85.0193 32.36 81.5153 32.36Z" fill="white"/>
<path d="M97.6174 32V6.62H101.469L110.469 23.216L119.433 6.62H123.213V32H119.037V14.9L111.765 28.148H109.065L101.793 14.972V32H97.6174Z" fill="white"/>
<path d="M128.799 32V6.62H133.407V32H128.799Z" fill="white"/>
<path d="M138.924 32V6.62H142.38L156.024 24.332V6.62H160.308V32H156.888L143.208 14.216V32H138.924Z" fill="white"/>
<path d="M163.118 32L174.602 6.62H178.382L189.866 32H185.186L182.666 26.132H170.282L167.798 32H163.118ZM176.438 11.624L171.866 22.46H181.082L176.51 11.624H176.438Z" fill="white"/>
<path d="M195.951 32V10.472H187.239V6.62H209.271V10.472H200.559V32H195.951Z" fill="white"/>
<path d="M212.19 32V6.62H229.074V10.292H216.618V17.276H228.282V20.948H216.618V28.328H229.074V32H212.19Z" fill="white"/>
<defs>
<linearGradient id="paint0_linear_106_84" x1="114.537" y1="0" x2="114.537" y2="39" gradientUnits="userSpaceOnUse">
<stop stop-color="#552AFF"/>
<stop offset="1" stop-color="#00001C"/>
</linearGradient>
<radialGradient id="paint1_radial_106_84" cx="0" cy="0" r="1" gradientUnits="userSpaceOnUse" gradientTransform="translate(147.857 29.4273) rotate(90) scale(4.60909 27.0724)">
<stop stop-color="#9382FF"/>
<stop offset="1" stop-color="#552AFF"/>
</radialGradient>
</defs>
</svg>
